# xmcd
#
# Track frame offsets:
#	150
#	8350
#	27852
#	47054
#	60706
#	78933
#	92585
#	108787
#	123789
#	145841
#	162023
#	177449
#	186601
#
# Disc length: 2567 seconds
#
# Revision: 1
# Processed by: cddbd v1.5.1PL0 Copyright (c) Steve Scherf et al.
# Submitted via: audiograbber 1.83.01
#
DISCID=990a050d
DTITLE=ADM - My Revolution
DYEAR=2005
DGENRE=Hip-Hop
TTITLE0=Intro
TTITLE1=Down
TTITLE2=Tomorrow (featuring Cami and Sha)
TTITLE3=Pressure (featuring Henok)
TTITLE4=Ya Hear That
TTITLE5=Simple Man
TTITLE6=This Could Have Been A Lovesong
TTITLE7=Son Of (featuring Campus Clique)
TTITLE8=Long Distance (featuring Jacqueline)
TTITLE9=Way Home
TTITLE10=Absolute Truth (featuring Scoop)
TTITLE11=Fire
TTITLE12=I Say Thank You
EXTD=
EXTT0=
EXTT1=
EXTT2=
EXTT3=
EXTT4=
EXTT5=
EXTT6=
EXTT7=
EXTT8=
EXTT9=
EXTT10=
EXTT11=
EXTT12=
PLAYORDER=
